# xmcd
#
# Track frame offsets:
#	150
#	14367
#	29035
#	43834
#	58816
#	75830
#	88334
#	103811
#	119018
#	132696
#	146442
#	160437
#	172605
#	188067
#	200483
#
# Disc length: 2855 seconds
#
# Revision: 0
# Processed by: cddbd v1.5.2PL0 Copyright (c) Steve Scherf et al.
# Submitted via: EasyCDDAExtractor 16.0.8.2
#
DISCID=d70b250f
DTITLE=Συλλογικός δίσκος - Κάνε μου τέτοια 1
DYEAR=2014
DGENRE=Τσιφτετέλια
TTITLE0=Καζαντζίδης Στέλιος-Μαρινέλλα - Σήκω χόρεψε κουκλί μου [παραδ., διασκ.
TTITLE0=ιδίου]
TTITLE1=Αγγελόπουλος Μανώλης-Γκρέϋ Καίτη - Ανέβα στο τραπέζι μου [Μπ. Μπακάλης
TTITLE1=Κ. Βίρβος]
TTITLE2=Γκρέϋ Καίτη - Άναψε το τσιγάρο [Γ. Κλουβάτος-Χ. Βασιλειάδης]
TTITLE3=Λύδια Γιώτα - Νά 'χα εκατό καρδιές [Νίκος Δαλέζιος]
TTITLE4=Γαβαλάς Πάνος - Φύγε κι άσε με [Π.Γαβαλάς/Τ.Κουλούρης-Κ.Βίρβος]
TTITLE5=Μενιδιάτης Μιχάλης - Λίγο-λίγο θα με συνηθίσεις [Α.Καλδάρας-Ε.Παπαγιαν
TTITLE5=νοπούλου]
TTITLE6=Λύδια Γιώτα - Γιατί θες να φύγεις [Στρ. Ατταλίδης-Κ. Βίρβος]
TTITLE7=Πάνου Πόλυ-Χιώτης Μανώλης - Μελαχροινή τσιγγάνα μου [Χρ. Κολοκοτρώνης]
TTITLE8=Παπαδάκης Μάνος - Θα τα κάψω τα λεφτά μου [Β. Βασιλειάδης-Πυθαγόρας]
TTITLE9=Γαβαλάς Πάνος - Δεν πουλάω την καρδιά μου [Π. Γαβαλάς-Β. Βασιλειάδης]
TTITLE10=Περπινιάδης Βαγγέλης - Νά 'μουνα το σεντονάκι Μπ. Μπακάλης-Μαρία Νιφό
TTITLE10=ρου]
TTITLE11=Αγγελόπουλος Μανώλης - Όσο αξίζεις εσύ [Απ. Καλδάρας]
TTITLE12=Καζαντζίδης Στέλιος-Χιώτης Μανώλης - Έξω ντέρτια και καϋμοί [Σ. Καζαν
TTITLE12=τζίδης]
TTITLE13=Περπινιάδης Βαγγέλης-Νόρμα Ρία - Δεν έχω παλάτια και λεφτά [Β. Περπιν
TTITLE13=ιάδης]
TTITLE14=Γκρέϋ Καίτη - Πω πω κάτι μάτια [Σ.Χρυσίνης-Χ.Κολοκοτρώνης/Σ.Παντελίδη
TTITLE14=ς]
EXTD=
EXTT0=
EXTT1=
EXTT2=
EXTT3=
EXTT4=
EXTT5=
EXTT6=
EXTT7=
EXTT8=
EXTT9=
EXTT10=
EXTT11=
EXTT12=
EXTT13=
EXTT14=
PLAYORDER=
